<svg xmlns="http://www.w3.org/2000/svg" viewBox="0 0 120 120" fill="none" aria-hidden="true">
  <defs>
    <radialGradient id="glow" cx="50%" cy="55%" r="50%">
      <stop offset="0%" stop-color="#e8ff8a"/>
      <stop offset="45%" stop-color="#b8ff4a"/>
      <stop offset="100%" stop-color="#3d7a4a" stop-opacity="0"/>
    </radialGradient>
    <linearGradient id="wing" x1="0%" y1="0%" x2="100%" y2="100%">
      <stop offset="0%" stop-color="#7cf5c6" stop-opacity="0.9"/>
      <stop offset="100%" stop-color="#2d5a8f" stop-opacity="0.5"/>
    </linearGradient>
  </defs>
  <ellipse cx="60" cy="68" rx="28" ry="32" fill="url(#glow)" opacity="0.85"/>
  <path d="M60 28c-8 12-14 28-14 44 0 18 6 28 14 28s14-10 14-28c0-16-6-32-14-44z" fill="#0f2418" opacity="0.92"/>
  <ellipse cx="60" cy="66" rx="10" ry="14" fill="#cfff6a" opacity="0.95"/>
  <path d="M32 52c-12-4-18 2-16 14 2 10 14 14 24 10l-8-24z" fill="url(#wing)"/>
  <path d="M88 52c12-4 18 2 16 14-2 10-14 14-24 10l8-24z" fill="url(#wing)"/>
  <path d="M54 30c2-6 6-10 6-10s4 4 6 10" stroke="#b8ff4a" stroke-width="2" stroke-linecap="round" opacity="0.7"/>
</svg>
